HIERARCHY
ROOT Hip
{
  OFFSET 0.0 0.0 0.0
  CHANNELS 6 Xposition Yposition Zposition Xrotation Yrotation Zrotation
  JOINT LowerSpine
  {
    OFFSET 0.0 0.061367 -0.03653
    CHANNELS 3 Xrotation Yrotation Zrotation
    JOINT MiddleSpine
    {
      OFFSET 0.0 0.056002 0.002633
      CHANNELS 3 Xrotation Yrotation Zrotation
      JOINT Chest
      {
        OFFSET 0.0 0.069296 -0.013882
        CHANNELS 3 Xrotation Yrotation Zrotation
        JOINT Neck
        {
          OFFSET 0.0 0.156156 -0.002923
          CHANNELS 3 Xrotation Yrotation Zrotation
          JOINT Head
          {
            OFFSET 0.0 0.088183 0.023986
            CHANNELS 3 Xrotation Yrotation Zrotation
            End Site
            {
              OFFSET 1e-06 0.123215 0.003678
            }
          }
        }
        JOINT LClavicle
        {
          OFFSET 0.014189 0.150698 0.046467
          CHANNELS 3 Xrotation Yrotation Zrotation
          JOINT LShoulder
          {
            OFFSET 0.082893 0.021616 -0.034976
            CHANNELS 3 Xrotation Yrotation Zrotation
            JOINT LForearm
            {
              OFFSET 0.195645 -0.000695 -0.001695
              CHANNELS 3 Xrotation Yrotation Zrotation
              JOINT LHand
              {
                OFFSET 0.163209 0.000474 -0.000977
                CHANNELS 3 Xrotation Yrotation Zrotation
                End Site
                {
                  OFFSET 0.0 0.006864 0.0
                }
              }
            }
          }
        }
        JOINT RClavicle
        {
          OFFSET -0.014189 0.150698 0.046467
          CHANNELS 3 Xrotation Yrotation Zrotation
          JOINT RShoulder
          {
            OFFSET -0.082908 0.021619 -0.034982
            CHANNELS 3 Xrotation Yrotation Zrotation
            JOINT RForearm
            {
              OFFSET -0.195645 -0.000695 -0.001695
              CHANNELS 3 Xrotation Yrotation Zrotation
              JOINT RHand
              {
                OFFSET -0.163209 0.000474 -0.000977
                CHANNELS 3 Xrotation Yrotation Zrotation
                End Site
                {
                  OFFSET 0.0 0.006864 0.0
                }
              }
            }
          }
        }
      }
    }
  }
  JOINT RThigh
  {
    OFFSET -0.072558 0.02774 -0.005953
    CHANNELS 3 Xrotation Yrotation Zrotation
    JOINT RShin
    {
      OFFSET -0.005253 -0.285537 0.0
      CHANNELS 3 Xrotation Yrotation Zrotation
      JOINT RFoot
      {
        OFFSET 0.0 -0.28038 0.0
        CHANNELS 3 Xrotation Yrotation Zrotation
        JOINT RToe
        {
          OFFSET 0.0 -0.030816 0.064441
          CHANNELS 3 Xrotation Yrotation Zrotation
          End Site
          {
            OFFSET 0.0 0.0 0.043231
          }
        }
      }
    }
  }
  JOINT LThigh
  {
    OFFSET 0.072557 0.027741 -0.005953
    CHANNELS 3 Xrotation Yrotation Zrotation
    JOINT LShin
    {
      OFFSET 0.005253 -0.285539 0.0
      CHANNELS 3 Xrotation Yrotation Zrotation
      JOINT LFoot
      {
        OFFSET 0.0 -0.28038 0.0
        CHANNELS 3 Xrotation Yrotation Zrotation
        JOINT LToe
        {
          OFFSET 0.0 -0.030816 0.064441
          CHANNELS 3 Xrotation Yrotation Zrotation
          End Site
          {
            OFFSET 0.0 0.0 0.043231
          }
        }
      }
    }
  }
}
MOTION
Frames: 13
Frame Time: 0.03333333333333333
0.013642 0.590546 0.023988 2.607602 -0.65769 -0.963252 -3.697797 -0.263997 0.033684 -0.552582 1.779043 -0.937806 -5.190957 2.629873 0.903748 -3.936824 -0.603555 0.095919 -0.18561 0.736545 -0.05137 0.54651 2.235608 -15.064226 25.822906 -25.145149 -52.899761 13.157375 -26.372282 -2.227028 -0.111536 -0.181258 0.110608 1.099134 -1.073087 16.396097 18.903624 29.812157 56.216503 7.728318 18.798414 2.25444 0.648646 -0.028597 0.119014 -2.544734 -2.719651 -2.16069 4.516991 -2.127555 0.701203 -2.224935 1.642473 1.421441 0.244942 -0.00538 -0.355543 1.858418 6.603267 1.70144 2.808666 6.223683 -2.186129 -1.128458 -0.344565 -0.781055 -0.350554 0.217833 0.081731 
0.01599 0.589182 0.018171 2.383934 -1.383708 -0.803198 -3.018673 -0.153196 0.964839 -1.241798 1.031959 -0.133119 -4.03104 3.700207 -0.689956 -2.845345 -0.355872 -0.039278 -0.068433 0.229674 -0.03375 -0.125186 0.997079 -15.187114 26.913527 -25.713137 -53.696991 14.136149 -25.816294 -0.188525 -0.044529 -0.090019 0.027676 0.217598 1.010828 15.880359 18.146395 30.083405 56.412949 9.200326 19.512049 1.964891 0.018213 0.021758 0.021675 -4.131756 -0.731833 -2.199678 8.231545 -1.511231 -0.615532 -0.163298 1.324968 0.952313 -0.099304 -0.208956 -0.090632 3.300344 9.587569 1.496292 0.654494 5.819711 -2.378995 -1.69197 -1.144966 -0.534407 -0.096947 -0.028679 -0.026862 
0.012269 0.587818 0.021453 2.782067 -1.274441 -0.439342 -2.874788 -0.355397 0.641927 -1.135272 0.770967 3.9e-05 -3.934717 3.214955 -0.858776 -2.803178 -0.153957 0.136052 -0.041875 0.142332 0.046422 0.011859 0.886148 -15.58196 26.98505 -26.639742 -53.939789 13.746348 -24.236938 -0.213207 -0.040023 -0.057363 0.035849 0.273288 1.363315 15.725891 19.713097 30.419729 55.610043 10.387451 21.630995 2.016684 -0.038062 -0.045774 -0.000302 -3.873111 -0.685377 -1.697684 6.766408 -1.560305 -0.547108 -0.032038 1.652374 0.968207 -0.048583 -0.122823 0.008153 3.399901 9.226761 2.123892 0.96513 5.840047 -2.037611 -1.948763 -0.858853 -0.423756 -0.032182 -0.025033 -0.015149 
0.006761 0.589175 0.02846 2.370677 -1.454816 -0.348853 -3.087028 -0.455532 0.568437 -0.96433 0.678912 -0.183993 -3.372596 3.07977 -1.279681 -2.790695 -0.109851 0.174711 -0.042354 0.132921 0.039027 0.170721 1.024215 -16.198093 27.100962 -27.286566 -53.767262 13.232793 -22.696039 -0.523062 -0.063042 -0.078992 0.062962 0.461731 1.368138 15.68491 20.300608 30.488337 55.213394 11.280627 24.193083 2.132791 -0.038694 -0.024215 6e-06 -2.927249 -0.415908 -1.336385 5.956957 -1.288726 -0.804962 -0.118701 1.671414 1.037085 -0.052186 -0.191084 -0.011674 4.329613 9.542488 2.526445 0.826331 6.131698 -1.885062 -2.119497 -0.527498 -0.277923 -0.041128 0.005942 -0.009525 
0.002403 0.587977 0.027757 1.783919 -1.423855 -0.529593 -3.293198 -0.52611 0.538759 -0.795138 0.705413 -0.388593 -2.56826 3.269285 -1.646273 -2.814004 -0.093113 0.208665 -0.047071 0.123485 0.03957 0.269775 1.167835 -16.668118 26.907885 -28.166368 -53.643116 12.626834 -20.718359 -0.864793 -0.085258 -0.093436 0.093078 0.571275 1.386304 15.655238 20.08786 30.883749 55.098236 11.904981 25.742628 2.034094 -0.044969 0.017664 -0.000439 -1.950898 -0.080341 -0.919255 5.733933 -1.00425 -1.071894 -0.446448 1.553517 1.031322 -0.064564 -0.259981 -0.035916 5.069619 9.613153 3.078738 0.477908 6.160801 -1.776281 -2.378946 -0.271382 -0.180565 -0.046437 0.022032 -0.008224 
0.00065 0.586231 0.023695 1.634425 -1.086734 -0.692057 -3.443665 -0.568795 0.469986 -0.736104 0.782315 -0.568337 -2.459876 3.358301 -1.626269 -2.955274 -0.127461 0.215942 -0.059634 0.164213 0.046784 0.329045 1.2929 -16.812263 26.77519 -28.452845 -53.549343 12.175472 -19.515272 -1.192904 -0.104196 -0.109503 0.117988 0.652997 1.331335 15.670729 19.962826 30.806236 54.997986 11.906312 26.208393 1.965183 -0.000576 0.041708 0.003343 -1.364853 -0.128673 -0.845054 5.599503 -0.948432 -1.066808 -0.824533 1.491435 1.056911 -0.047618 -0.29117 -0.065445 5.123792 9.117258 3.22436 0.132015 5.895648 -1.675128 -2.446959 -0.212383 -0.201901 -0.067235 0.045834 0.002718 
0.000973 0.585262 0.020775 1.463022 -0.780478 -0.761725 -3.518298 -0.595691 0.460293 -0.700969 0.869016 -0.652159 -2.427937 3.587133 -1.523928 -3.065866 -0.147833 0.233682 -0.067706 0.188797 0.054581 0.299767 1.307474 -16.752771 26.669216 -28.636248 -53.557049 11.913687 -18.792253 -1.333529 -0.115563 -0.116849 0.133094 0.631839 1.386701 15.709951 19.549324 31.011808 55.088593 11.613406 25.078897 1.898068 0.027681 0.055643 0.005171 -1.095429 0.175242 -0.82048 5.650978 -0.686134 -1.130012 -1.177743 1.408324 1.03459 -0.039955 -0.305965 -0.079176 5.209976 8.653852 3.206506 -0.322645 5.537247 -1.596198 -2.557908 -0.221741 -0.239155 -0.076351 0.057172 0.006834 
0.001664 0.584249 0.018829 1.445675 -0.487593 -0.695129 -3.489103 -0.602595 0.472094 -0.703645 0.925832 -0.678704 -2.567624 3.818889 -1.422039 -3.090785 -0.140301 0.259128 -0.070434 0.1948 0.060505 0.233323 1.240831 -16.551355 26.576778 -28.651779 -53.588516 11.816848 -18.446793 -1.334797 -0.121055 -0.117795 0.140295 0.541521 1.515217 15.792978 18.852749 31.438892 55.463604 11.117608 22.694715 1.880669 0.041036 0.062116 0.005785 -1.208138 0.618141 -0.807673 5.716842 -0.372195 -1.175682 -1.445349 1.301431 0.979312 -0.043474 -0.301739 -0.079139 5.144767 8.506984 3.101319 -0.732955 5.306242 -1.553211 -2.653651 -0.271733 -0.289081 -0.076172 0.058968 0.004641 
0.001738 0.58236 0.017212 1.560123 -0.173097 -0.68716 -3.359029 -0.606647 0.470534 -0.76285 0.944741 -0.630433 -2.837715 3.979261 -1.250429 -3.056562 -0.100552 0.290798 -0.068196 0.177283 0.062317 0.168698 1.111543 -16.256189 26.331974 -28.51552 -53.794533 11.706941 -18.099607 -1.222311 -0.115862 -0.106767 0.135478 0.372677 1.663325 15.868806 18.03425 31.802774 56.045959 10.481745 19.990641 1.88328 0.038248 0.057422 0.005233 -1.554235 0.921135 -0.701303 5.771271 -0.239371 -1.116955 -1.646286 1.171755 0.878246 -0.054777 -0.272062 -0.06692 4.826858 8.327003 3.082524 -1.065763 5.010059 -1.496282 -2.752243 -0.349399 -0.338011 -0.063116 0.043342 -0.005376 
0.001759 0.579309 0.014998 1.942224 0.022085 -0.715534 -3.184241 -0.616801 0.452843 -0.869597 0.941103 -0.564627 -3.350627 3.998762 -1.05851 -3.002395 -0.040783 0.343928 -0.062935 0.155001 0.063249 0.119406 0.964177 -15.947117 25.939703 -28.327318 -54.187691 11.543183 -17.750957 -1.124622 -0.099395 -0.08802 0.122815 0.185747 1.725342 15.945982 17.17634 32.000645 56.771362 9.669234 17.044178 1.856533 0.033826 0.04913 0.004493 -2.104942 0.981361 -0.535174 5.730612 -0.293667 -1.006292 -1.809164 1.013466 0.743441 -0.048832 -0.212398 -0.048345 4.223026 7.989101 3.120178 -1.322327 4.687256 -1.50512 -2.824707 -0.412526 -0.370127 -0.045129 0.020084 -0.016917 
0.001113 0.574925 0.011452 2.633563 -0.09007 -0.62772 -2.977153 -0.613163 0.427962 -1.014247 0.912061 -0.488652 -4.083593 3.973177 -0.859298 -2.92559 0.030952 0.389594 -0.057009 0.1285 0.063322 0.064898 0.785831 -15.643927 25.573647 -28.081024 -54.710697 11.41259 -17.406788 -1.091459 -0.07932 -0.066918 0.10569 0.003148 1.794671 16.003393 16.435183 32.071976 57.554024 8.621988 14.247932 1.891905 0.032278 0.046184 0.003683 -2.902572 1.038125 -0.363603 5.718195 -0.421828 -0.850421 -2.141639 0.859378 0.588777 -0.043278 -0.14114 -0.031092 3.093526 7.581925 3.180284 -1.381442 4.326453 -1.497372 -2.896921 -0.523278 -0.39908 -0.02662 -0.005623 -0.026737 
-0.000238 0.569384 0.00679 3.787969 -0.489999 -0.357062 -2.774446 -0.571273 0.407944 -1.184397 0.891937 -0.429632 -5.00675 3.912499 -0.635444 -2.872501 0.087224 0.402875 -0.053551 0.109129 0.063717 -0.026259 0.604552 -15.39831 25.379034 -27.607393 -55.223705 11.315642 -17.231466 -1.164057 -0.064398 -0.052392 0.088903 -0.156966 1.81923 16.081493 15.890435 32.021042 58.310856 7.240824 11.860451 2.071815 0.048281 0.050852 0.00491 -4.263485 1.247527 -0.265285 6.034216 -0.525425 -0.655324 -2.703045 0.683213 0.405709 -0.037948 -0.077895 -0.024171 1.246947 7.079821 3.214629 -1.033316 3.952374 -1.503781 -3.010916 -0.678744 -0.430125 -0.016826 -0.019706 -0.028567 
-0.00048 0.563472 0.003081 7.304828 -0.760082 -0.283459 -2.903246 -0.492537 0.500453 -1.387239 0.97618 -0.448376 -6.17147 3.765144 -0.857479 -3.105323 0.117225 0.42437 -0.046948 0.080327 0.063287 -0.044387 0.547143 -15.46732 26.124767 -27.103928 -54.773254 11.688951 -17.782202 -1.257427 -0.043734 -0.031837 0.066699 -0.331084 1.66872 16.467014 16.533146 31.609966 58.513371 6.260911 10.534348 2.348965 0.054552 0.0531 0.002187 -9.190032 2.086236 -0.092004 8.864032 -0.564683 -0.472296 -3.448961 0.42118 0.158753 -0.048316 -0.023992 -0.015492 -3.704086 6.274943 3.684468 1.696465 3.850997 -1.998881 -3.200659 -0.867896 -0.437891 6.7e-05 -0.041767 -0.03313 
